<svg version="1.1" xmlns="http://www.w3.org/2000/svg" xmlns:xlink="http://www.w3.org/1999/xlink" width="127" height="57" viewBox="0,0,127,57"><g transform="translate(-176.5,-151.5)"><g stroke="none" stroke-miterlimit="10"><path d="M176.5,192.33333c0,-11.36258 0,-25.48242 0,-31c0,-4.5006 4.11948,-9.83333 8.66667,-9.83333c13.12036,0 77.90394,0 105.66667,0c7.79111,0 12.66667,5.96796 12.66667,10.83333c0,6.30039 0,22.86267 0,34.33333c0,6.8154 -5.39322,11.83333 -11,11.83333c-14.02444,0 -75.26744,-0.33333 -102.66667,-0.33333c-8.17198,0 -13.33333,-6.89733 -13.33333,-15.83333z" fill="#9966ff" stroke-width="0" stroke-linecap="round"/><path d="M201.0152,192.29072c0.14493,-10.23119 1.22322,-21.10303 -1.27389,-31.01771c0,0 -0.60634,-2.42536 1.81902,-3.0317c2.42536,-0.60634 3.0317,1.81902 3.0317,1.81902c2.73696,11.02124 1.40798,23.00794 1.40798,34.27301l-5.0694,0.45137c0,0 -0.68198,-1.36397 0.08461,-2.49398z" fill="#9966ff" stroke-width="0.5" stroke-linecap="butt"/><path d="M205.66667,166.66667c0,2.5 -2.5,2.5 -2.5,2.5l-1.65146,-0.20214c-1.74387,-0.77532 -3.50715,-1.01364 -5.29331,-1.26831c0.72536,0.3809 1.11538,1.06343 1.11538,1.06343c3.95384,7.23917 1.99251,16.99826 2.55582,25.20369c0.1069,0.39761 0.1069,0.70332 0.1069,0.70332l-0.05107,0.00937c0.01209,0.13666 0.02496,0.27284 0.03866,0.40853l-1.55475,-0.13027l-3.42044,0.62779c-0.5957,-6.01124 -0.26138,-12.05309 -0.64982,-18.08335c-0.13726,-2.13087 -0.25334,-4.43624 -1.36653,-6.2584c0,0 -1.24035,-2.17061 0.93026,-3.41096c0.32073,-0.18327 0.62115,-0.29208 0.90026,-0.34441c-1.06293,-0.17757 -2.13417,-0.41102 -3.21445,-0.81462c-1.69453,-0.6331 -5.04966,-2.80901 -6.77046,-3.8837c0,0 -2.12,-1.325 -0.795,-3.44499c1.325,-2.12 3.44499,-0.795 3.44499,-0.795c1.24362,0.77788 4.67715,2.99039 5.89621,3.44964c3.38085,1.27364 6.74314,0.97451 10.09693,2.3725l-0.31813,-0.20214c0,0 2.5,0 2.5,2.5z" fill="#000000" stroke-width="0.5" stroke-linecap="butt"/><path d="M222.24129,181.66479c0.36464,-0.29288 0.87571,-0.49813 1.59204,-0.49813c2.5,0 2.5,2.5 2.5,2.5l-2.18991,2.81403c-4.12174,0.50811 -6.29124,0.23056 -10.30104,-1.06585c0.22849,0.48602 0.50923,0.90839 0.8479,1.24465c2.0929,2.07799 5.24932,2.83706 7.26886,4.686l-0.6258,-1.01216c0,0 0,-2.5 2.5,-2.5c2.5,0 2.5,2.5 2.5,2.5l-0.6258,4.32117c-1.59574,0.38889 -3.14497,1.19238 -4.78721,1.16666c-3.18771,-0.04993 -4.10761,-1.53426 -6.27205,-3.16843c-1.20395,-0.90899 -2.66653,-1.52084 -3.67188,-2.64556c-3.83535,-4.29072 -3.59021,-13.30082 -1.00363,-18.20583c0.66495,-1.26096 3.32989,-3.80481 4.42614,-4.90245c0,0 1.76777,-1.76777 3.53553,0c1.76777,1.76777 0,3.53553 0,3.53553c-0.35504,0.35457 -3.2696,3.19294 -3.57386,3.76422c-0.79442,1.49164 -1.34967,4.15809 -1.341,6.71559c0.99252,-0.71212 2.27099,-0.28596 2.27099,-0.28596c3.05443,1.04693 4.35319,1.28499 6.95072,1.0365z" fill="#000000" stroke-width="0.5" stroke-linecap="butt"/><path d="M276.40273,165.2153c1.11803,2.23607 -1.11803,3.3541 -1.11803,3.3541l-1.41686,0.70651c-3.62394,1.6469 -7.1161,3.12223 -10.68773,4.08189c0.41613,3.25963 0.24403,6.60242 0.48077,10.12857c0.28646,4.26654 1.27389,8.556 1.97218,12.77176l-4.43841,0.23427l-0.49438,0.58278c-0.03045,-0.18381 -0.06138,-0.36775 -0.09272,-0.5518l-0.72639,0.03834c0,0 -1.42258,-1.77822 0.14486,-3.29809c-0.57053,-3.1342 -1.13803,-6.29086 -1.35367,-9.43885c-0.21776,-3.17901 0.107,-6.42664 -0.27689,-9.52833c-2.55148,0.30384 -5.18576,0.28738 -7.97312,-0.16382c0,0 -0.69778,-0.1163 -1.28913,-0.59635c-1.9931,4.80864 -4.24429,9.47811 -6.71922,14.05799c3.04714,4.96752 6.24371,9.85274 9.22482,14.77795l-1.68744,3.86382c0,0 -2.23607,1.11803 -3.3541,-1.11803c-0.35403,-0.70805 -0.37174,-1.304 -0.23064,-1.78785c-2.2032,-3.58714 -4.49279,-7.15961 -6.73729,-10.76339c-2.05601,3.67668 -3.16707,6.50074 -7.14453,8.39773c0,0 -2.29786,0.9848 -3.28266,-1.31306c-0.9848,-2.29786 1.31306,-3.28266 1.31306,-3.28266c2.74734,-0.9329 3.74292,-4.50905 5.15308,-6.95216c0.33039,-0.57241 0.6573,-1.14602 0.98062,-1.72095c-2.72701,-4.55969 -5.29088,-9.20081 -7.43344,-14.01368c0,0 -1.01535,-2.28453 1.26918,-3.29988c2.28453,-1.01535 3.29988,1.26918 3.29988,1.26918c1.65487,3.72996 3.57495,7.35491 5.63101,10.91816c2.53195,-4.90049 4.79548,-9.9166 6.74364,-15.11396l-0.15918,0.21114c0,0 0,-2.5 2.5,-2.5c2.5,0 2.5,2.5 2.5,2.5l-0.15545,1.50834c0.24217,-0.00059 0.39978,0.02568 0.39978,0.02568c1.97926,0.34101 3.8773,0.4031 5.7232,0.25332c-0.0959,-0.18341 -0.1974,-0.36575 -0.3048,-0.54699c0,0 -1.24035,-2.17061 0.93026,-3.41096c2.17061,-1.24035 3.41096,0.93026 3.41096,0.93026c0.39177,0.70434 0.72002,1.40922 0.99547,2.11573c3.29095,-0.90058 6.49552,-2.31588 9.79941,-3.81797l1.24981,-0.62682c0,0 2.23607,-1.11803 3.3541,1.11803z" fill="#000000" stroke-width="0.5" stroke-linecap="butt"/></g></g></svg>