<svg version="1.1" xmlns="http://www.w3.org/2000/svg" xmlns:xlink="http://www.w3.org/1999/xlink" width="127.00001" height="56.99999" viewBox="0,0,127.00001,56.99999"><g transform="translate(-176.5,-151.5)"><g stroke="none" stroke-miterlimit="10"><path d="M176.5,192.33333c0,-11.36258 0,-25.48242 0,-31c0,-4.5006 4.11948,-9.83333 8.66667,-9.83333c13.12036,0 77.90394,0 105.66667,0c7.79111,0 12.66667,5.96796 12.66667,10.83333c0,6.30039 0,22.86267 0,34.33333c0,6.8154 -5.39322,11.83333 -11,11.83333c-14.02444,0 -75.26744,-0.33333 -102.66667,-0.33333c-8.17198,0 -13.33333,-6.89733 -13.33333,-15.83333z" fill="#9966ff" stroke-width="0" stroke-linecap="round"/><path d="M201.0152,192.29072c0.14493,-10.23119 1.22322,-21.10303 -1.27389,-31.01771c0,0 -0.60634,-2.42536 1.81902,-3.0317c2.42536,-0.60634 3.0317,1.81902 3.0317,1.81902c2.73696,11.02124 1.40798,23.00794 1.40798,34.27301l-5.0694,0.45137c0,0 -0.68198,-1.36397 0.08461,-2.49398z" fill="#9966ff" stroke-width="0.5" stroke-linecap="butt"/><path d="M202.48775,200.13248c-2.5,0 -2.5,-2.5 -2.5,-2.5l0.00864,-0.55335c0.57739,-6.88439 0.3371,-13.8157 0.3371,-20.72252c0,-5.08849 0.18929,-9.94647 -0.65745,-14.96105c0,0 -0.411,-2.46598 2.05499,-2.87698c2.46598,-0.411 2.87698,2.05499 2.87698,2.05499c0.8738,5.30597 0.72549,10.40698 0.72549,15.78305c0,7.04757 0.22751,14.11222 -0.35437,21.13774l0.00864,0.13812c0,0 0,2.5 -2.5,2.5z" fill="#000000" stroke-width="0.5" stroke-linecap="butt"/><path d="M255.75995,186.2026c0.6331,-0.43082 1.74999,-0.85819 2.98092,0.19689c1.89814,1.62698 0.27116,3.52512 0.27116,3.52512l-4.40764,3.25501c-3.68146,-5.39664 -5.63173,-10.75731 -7.91363,-16.81565c-0.64774,-1.71973 -1.57812,-3.48352 -1.96438,-5.3452c-0.55951,1.10036 -1.41418,2.06257 -1.96631,3.17371c-1.32118,2.6588 -2.4661,5.39227 -3.63326,8.12134l0.25542,0.06811l-1.27445,4.77918c-0.26594,1.09489 -1.25276,1.90784 -2.42945,1.90784c-0.89402,0 -1.67843,-0.46927 -2.12035,-1.17493l-1.457,-2.24887l0.04805,-0.03113l-0.13965,-0.12197c-1.75171,-3.79544 -2.06667,-4.94344 -4.38299,-8.28198c-0.49491,-0.71332 -0.83422,-1.80644 -1.68332,-1.98753c-0.52052,-0.11101 -0.16236,1.08147 -0.44211,1.53424c-0.59274,0.95933 -1.52996,1.67355 -2.12988,2.62841c-3.1089,4.94825 -5.06852,10.98335 -6.73376,16.5455c0,0 -0.71837,2.39457 -3.11294,1.6762c-2.39457,-0.71837 -1.6762,-3.11294 -1.6762,-3.11294c2.1108,-7.02243 4.59581,-15.53453 9.80606,-20.93136c1.14993,-1.19111 2.0516,-3.34699 3.70671,-3.30605c4.7641,0.11784 7.59082,5.21263 9.54582,9.49605c0.43317,-1.22899 1.14879,-2.37883 1.64596,-3.58965c1.15317,-2.80841 2.33495,-6.19445 4.28691,-8.58432c1.11942,-1.37056 2.22167,-3.9892 3.93842,-3.55987c2.38671,0.59689 3.37156,3.62519 4.67246,5.71334c2.32689,3.73501 3.08434,8.71994 4.78919,12.77369c0.47616,1.13221 1.26364,2.46016 1.52025,3.6968z" fill="#000000" stroke-width="0.5" stroke-linecap="butt"/><path d="M272.07945,178.38005c0.92848,-2.32119 3.24967,-1.39272 3.24967,-1.39272l2.72075,1.4122c0.73571,0.99051 1.87835,1.78229 2.20714,2.97152c0.35221,1.27393 -0.05535,2.65408 -0.29228,3.95439c-0.73123,4.01316 -3.76663,11.53152 -9.28561,10.98995c-2.42749,-0.23821 -5.91937,-4.78603 -6.63351,-6.98282c-0.35619,-1.09571 -0.08089,-2.30305 -0.09688,-3.45509c-0.08672,-6.24865 0.38167,-13.21394 4.38253,-18.19574c0,0 1.60046,-1.92055 3.52101,-0.32009c1.92055,1.60046 0.32009,3.52101 0.32009,3.52101c-3.3618,3.81857 -3.13365,10.11083 -3.22364,14.99482c-0.02299,1.24774 0.4401,5.10603 2.25873,5.4659c0.52589,0.10406 0.83906,-0.68073 1.1736,-1.09962c1.86674,-2.33735 4.28558,-6.32877 1.8277,-8.64332l-0.7366,0.02926c0,0 -2.32119,-0.92848 -1.39272,-3.24967z" fill="#000000" stroke-width="0.5" stroke-linecap="butt"/></g></g></svg>